<?xml version="1.0" encoding="UTF-8"?>
<!DOCTYPE svg PUBLIC "-//W3C//DTD SVG 1.1//EN" "http://www.w3.org/Graphics/SVG/1.1/DTD/svg11.dtd">
<!-- Creator: CorelDRAW 2018 (64 Bit) -->
<svg xmlns="http://www.w3.org/2000/svg" xml:space="preserve" width="150px" height="50px" version="1.1" style="shape-rendering:geometricPrecision; text-rendering:geometricPrecision; image-rendering:optimizeQuality; fill-rule:evenodd; clip-rule:evenodd" viewBox="0 0 150 50" xmlns:xlink="http://www.w3.org/1999/xlink">
 <defs>
  <style type="text/css">
   <![CDATA[
    .fil0 {fill:#FEFEFE;fill-rule:nonzero}
   ]]>
  </style>
 </defs>
 <g id="Capa_x0020_1">
  <metadata id="CorelCorpID_0Corel-Layer"/>
  <path class="fil0" d="M9.76 9.58l0.01 1.06c-0.03,0.67 -0.11,1.23 -0.23,1.69 -0.12,0.46 -0.35,0.87 -0.7,1.25 -0.57,0.62 -1.41,0.93 -2.52,0.93 -1.29,0 -2.18,-0.18 -2.67,-0.56 -0.48,-0.37 -0.72,-1.04 -0.72,-2.01l0 -7.2 3.52 0c1.02,0 1.82,0.31 2.39,0.93 0.47,0.5 0.74,1.12 0.83,1.84 0.06,0.51 0.09,1.2 0.09,2.07zm-2.15 2.62c0.16,-0.21 0.26,-0.5 0.31,-0.87 0.05,-0.37 0.07,-0.95 0.07,-1.73 0,-0.79 -0.02,-1.36 -0.07,-1.71 -0.05,-0.35 -0.15,-0.64 -0.31,-0.85 -0.31,-0.4 -0.75,-0.6 -1.32,-0.6l-1.59 0 0 5.41c0,0.36 0.11,0.62 0.34,0.75 0.23,0.14 0.64,0.21 1.23,0.21 0.59,0 1.03,-0.2 1.34,-0.61z"/>
  <polygon id="1" class="fil0" points="13.08,14.51 11.31,14.51 11.31,4.74 13.08,4.74 "/>
  <path id="2" class="fil0" d="M22.04 14.51l-2.05 0 -1.76 -3.62 -1.28 0 0 3.62 -1.76 0 0 -7.67c0,-0.73 0.15,-1.27 0.47,-1.6 0.31,-0.34 0.84,-0.5 1.57,-0.5l1.51 0c0.89,0 1.61,0.29 2.14,0.88 0.53,0.59 0.79,1.34 0.79,2.25 0,0.66 -0.16,1.23 -0.47,1.71 -0.32,0.48 -0.71,0.81 -1.18,0.99l2.02 3.94zm-3.42 -5.22c0.37,0 0.68,-0.14 0.92,-0.41 0.24,-0.28 0.37,-0.63 0.37,-1.05 0,-0.41 -0.12,-0.75 -0.35,-1.01 -0.24,-0.25 -0.55,-0.38 -0.94,-0.38l-0.88 0c-0.52,0 -0.79,0.29 -0.79,0.86l0 1.99 1.67 0z"/>
  <path id="3" class="fil0" d="M29.47 14.51l-3.21 0c-1.02,0 -1.73,-0.19 -2.14,-0.57 -0.41,-0.38 -0.62,-1.05 -0.62,-2.01l0 -7.19 5.97 0 0 1.7 -4.2 0 0 2.29 2.94 0 -0.13 1.7 -2.81 0 0 1.36c0,0.39 0.08,0.65 0.24,0.8 0.16,0.15 0.46,0.22 0.88,0.22l3.08 0 0 1.7z"/>
  <path id="4" class="fil0" d="M35.77 10.72l1.64 0c0,1.25 -0.28,2.2 -0.86,2.87 -0.58,0.67 -1.39,1 -2.44,1 -2.32,0 -3.47,-1.47 -3.47,-4.4l0 -0.83c0,-2.31 0.59,-3.76 1.78,-4.35 0.46,-0.24 1.03,-0.36 1.69,-0.36 0.97,0 1.75,0.29 2.36,0.86 0.6,0.57 0.9,1.4 0.9,2.48l-1.65 0c-0.09,-0.54 -0.26,-0.95 -0.49,-1.22 -0.24,-0.28 -0.61,-0.41 -1.12,-0.41 -0.6,0 -1.04,0.2 -1.32,0.6 -0.21,0.28 -0.33,0.77 -0.36,1.46 -0.02,0.22 -0.03,0.51 -0.03,0.89l0 0.85c0,1.05 0.14,1.77 0.41,2.15 0.28,0.39 0.72,0.58 1.3,0.58 0.59,0 1,-0.18 1.23,-0.53 0.22,-0.35 0.37,-0.9 0.43,-1.64z"/>
  <path id="5" class="fil0" d="M43.49 10.72l1.64 0c0,1.25 -0.29,2.2 -0.86,2.87 -0.58,0.67 -1.39,1 -2.44,1 -2.32,0 -3.48,-1.47 -3.48,-4.4l0 -0.83c0,-2.31 0.6,-3.76 1.79,-4.35 0.46,-0.24 1.02,-0.36 1.69,-0.36 0.96,0 1.75,0.29 2.35,0.86 0.61,0.57 0.91,1.4 0.91,2.48l-1.65 0c-0.09,-0.54 -0.26,-0.95 -0.5,-1.22 -0.23,-0.28 -0.61,-0.41 -1.11,-0.41 -0.6,0 -1.04,0.2 -1.33,0.6 -0.2,0.28 -0.32,0.77 -0.35,1.46 -0.02,0.22 -0.03,0.51 -0.03,0.89l0 0.85c0,1.05 0.14,1.77 0.41,2.15 0.28,0.39 0.71,0.58 1.3,0.58 0.59,0 1,-0.18 1.22,-0.53 0.23,-0.35 0.37,-0.9 0.44,-1.64z"/>
  <polygon id="6" class="fil0" points="48.4,14.51 46.63,14.51 46.63,4.74 48.4,4.74 "/>
  <path id="7" class="fil0" d="M57.15 9.17l0 0.74c0,1.64 -0.29,2.83 -0.86,3.57 -0.57,0.74 -1.49,1.11 -2.75,1.11 -1.27,0 -2.18,-0.36 -2.74,-1.1 -0.57,-0.74 -0.85,-1.94 -0.85,-3.61l0 -0.52c0,-1.61 0.29,-2.8 0.86,-3.56 0.57,-0.76 1.49,-1.15 2.74,-1.15 2.4,0 3.6,1.51 3.6,4.52zm-1.77 0.66l0 -0.66c0,-1.14 -0.14,-1.89 -0.43,-2.25 -0.29,-0.38 -0.76,-0.56 -1.4,-0.56 -0.64,0 -1.12,0.19 -1.42,0.57 -0.23,0.29 -0.35,0.78 -0.39,1.49 -0.01,0.22 -0.02,0.54 -0.02,0.94l0 0.51c0.01,0.97 0.07,1.64 0.2,1.99 0.24,0.69 0.78,1.03 1.63,1.03 0.74,0 1.23,-0.23 1.48,-0.69 0.16,-0.33 0.25,-0.65 0.29,-0.96 0.04,-0.39 0.06,-0.86 0.06,-1.41zm0.09 -8.48l-0.94 1.45c-0.29,0.44 -0.62,0.66 -0.98,0.66 -0.24,0 -0.36,-0.12 -0.36,-0.36 0,-0.09 0.02,-0.19 0.06,-0.3l0.48 -1.45 1.74 0z"/>
  <path id="8" class="fil0" d="M65.76 4.74l0 8.78c0,0.3 -0.09,0.56 -0.26,0.78 -0.17,0.21 -0.37,0.32 -0.59,0.32 -0.59,0 -1.07,-0.37 -1.44,-1.1l-3.13 -5.28 0 6.27 -1.77 0 0 -9.77 1.71 0 3.71 6.39 0 -6.39 1.77 0z"/>
  <path id="9" class="fil0" d="M77.39 14.51l-2.05 0 -1.76 -3.62 -1.28 0 0 3.62 -1.76 0 0 -7.67c0,-0.73 0.15,-1.27 0.47,-1.6 0.31,-0.34 0.84,-0.5 1.57,-0.5l1.51 0c0.89,0 1.61,0.29 2.14,0.88 0.53,0.59 0.79,1.34 0.79,2.25 0,0.66 -0.16,1.23 -0.47,1.71 -0.32,0.48 -0.71,0.81 -1.18,0.99l2.02 3.94zm-3.42 -5.22c0.37,0 0.68,-0.14 0.92,-0.41 0.24,-0.28 0.37,-0.63 0.37,-1.05 0,-0.41 -0.12,-0.75 -0.35,-1.01 -0.24,-0.25 -0.55,-0.38 -0.94,-0.38l-0.88 0c-0.52,0 -0.79,0.29 -0.79,0.86l0 1.99 1.67 0z"/>
  <path id="10" class="fil0" d="M84.82 14.51l-3.21 0c-1.02,0 -1.73,-0.19 -2.14,-0.57 -0.41,-0.38 -0.62,-1.05 -0.62,-2.01l0 -7.19 5.97 0 0 1.7 -4.2 0 0 2.29 2.94 0 -0.13 1.7 -2.81 0 0 1.36c0,0.39 0.08,0.65 0.24,0.8 0.16,0.15 0.46,0.22 0.88,0.22l3.08 0 0 1.7z"/>
  <path id="11" class="fil0" d="M85.99 9.91l0 -1.21c0,-1.27 0.31,-2.26 0.92,-2.98 0.62,-0.71 1.48,-1.07 2.57,-1.07 1.1,0 1.97,0.36 2.64,1.07 0.46,0.51 0.69,1.26 0.69,2.27l-1.65 0c0,-1.09 -0.54,-1.63 -1.61,-1.63 -0.33,0 -0.6,0.06 -0.82,0.2 -0.23,0.13 -0.4,0.28 -0.51,0.46 -0.11,0.17 -0.19,0.43 -0.25,0.76 -0.06,0.34 -0.09,0.63 -0.1,0.86 -0.01,0.22 -0.01,0.53 -0.01,0.92 0,0.38 0,0.64 0,0.77 0.01,0.13 0.02,0.35 0.04,0.65 0.02,0.29 0.06,0.51 0.1,0.63 0.05,0.13 0.12,0.3 0.21,0.5 0.08,0.2 0.2,0.34 0.33,0.42 0.35,0.24 0.74,0.36 1.18,0.36 0.74,0 1.26,-0.34 1.57,-1.02l0 -0.65 -1.09 0 0 -1.6 2.6 0 0 2.96c-0.26,0.66 -0.68,1.17 -1.24,1.51 -0.57,0.33 -1.22,0.5 -1.94,0.5 -1.28,0 -2.2,-0.38 -2.77,-1.16 -0.58,-0.77 -0.86,-1.94 -0.86,-3.52z"/>
  <polygon id="12" class="fil0" points="96.41,14.51 94.65,14.51 94.65,4.74 96.41,4.74 "/>
  <path id="13" class="fil0" d="M105.16 9.17l0 0.74c0,1.64 -0.29,2.83 -0.86,3.57 -0.57,0.74 -1.49,1.11 -2.75,1.11 -1.26,0 -2.18,-0.37 -2.74,-1.11 -0.56,-0.74 -0.85,-1.94 -0.85,-3.61l0 -0.71c0,-1.52 0.29,-2.65 0.86,-3.39 0.58,-0.74 1.48,-1.12 2.72,-1.12 1.25,0 2.16,0.38 2.74,1.13 0.59,0.75 0.88,1.88 0.88,3.39zm-1.77 0.7l0 -0.51c0,-0.87 -0.1,-1.58 -0.3,-2.1 -0.24,-0.6 -0.75,-0.9 -1.53,-0.9 -0.78,0 -1.3,0.3 -1.54,0.9 -0.19,0.5 -0.29,1.2 -0.29,2.1l0 0.51c0,1.18 0.15,1.98 0.46,2.39 0.12,0.17 0.29,0.32 0.53,0.45 0.23,0.12 0.51,0.18 0.84,0.18 0.32,0 0.6,-0.06 0.83,-0.18 0.23,-0.12 0.41,-0.26 0.53,-0.44 0.13,-0.17 0.23,-0.4 0.3,-0.68 0.11,-0.45 0.17,-1.02 0.17,-1.72z"/>
  <path id="14" class="fil0" d="M113.77 4.74l0 8.78c0,0.3 -0.09,0.56 -0.25,0.78 -0.17,0.21 -0.37,0.32 -0.6,0.32 -0.59,0 -1.07,-0.37 -1.44,-1.1l-3.13 -5.28 0 6.27 -1.76 0 0 -9.77 1.7 0 3.71 6.39 0 -6.39 1.77 0z"/>
  <path id="15" class="fil0" d="M122.47 14.51l-1.85 0 -0.51 -1.69 -3.03 0 -0.5 1.69 -1.84 0 2.89 -8.95c0.13,-0.31 0.27,-0.53 0.43,-0.64 0.16,-0.12 0.35,-0.18 0.58,-0.18 0.23,0 0.41,0.05 0.55,0.16 0.14,0.11 0.27,0.33 0.38,0.66l2.9 8.95zm-2.76 -3.29l-1.07 -3.87 -1.12 3.87 2.19 0z"/>
  <path id="16" class="fil0" d="M129.29 14.51l-2.69 0c-1.02,0 -1.75,-0.21 -2.21,-0.64 -0.45,-0.42 -0.68,-1.12 -0.68,-2.08l0 -7.05 1.77 0 0 7.05c0,0.39 0.08,0.65 0.24,0.8 0.16,0.15 0.45,0.22 0.88,0.22l2.69 0 0 1.7z"/>
  <path id="17" class="fil0" d="M140.49 9.58l0.01 1.06c-0.04,0.67 -0.11,1.23 -0.23,1.69 -0.12,0.46 -0.35,0.87 -0.7,1.25 -0.58,0.62 -1.42,0.93 -2.52,0.93 -1.29,0 -2.18,-0.18 -2.67,-0.56 -0.48,-0.37 -0.72,-1.04 -0.72,-2.01l0 -7.2 3.52 0c1.02,0 1.81,0.31 2.39,0.93 0.47,0.5 0.74,1.12 0.83,1.84 0.06,0.51 0.09,1.2 0.09,2.07zm-2.15 2.62c0.16,-0.21 0.26,-0.5 0.31,-0.87 0.04,-0.37 0.07,-0.95 0.07,-1.73 0,-0.79 -0.03,-1.36 -0.07,-1.71 -0.05,-0.35 -0.15,-0.64 -0.31,-0.85 -0.31,-0.4 -0.75,-0.6 -1.33,-0.6l-1.59 0 0 5.41c0,0.36 0.12,0.62 0.35,0.75 0.23,0.14 0.64,0.21 1.22,0.21 0.59,0 1.04,-0.2 1.35,-0.61z"/>
  <path id="18" class="fil0" d="M148 14.51l-3.2 0c-1.02,0 -1.74,-0.19 -2.15,-0.57 -0.41,-0.38 -0.61,-1.05 -0.61,-2.01l0 -7.19 5.96 0 0 1.7 -4.2 0 0 2.29 2.94 0 -0.13 1.7 -2.81 0 0 1.36c0,0.39 0.09,0.65 0.25,0.8 0.16,0.15 0.45,0.22 0.87,0.22l3.08 0 0 1.7z"/>
  <path class="fil0" d="M34.96 47.34l2.29 -5.95 0.87 0 2.42 5.95 -0.9 0 -0.68 -1.8 -2.51 0 -0.65 1.8 -0.84 0zm1.72 -2.44l2.03 0 -0.62 -1.65c-0.19,-0.51 -0.33,-0.92 -0.43,-1.25 -0.08,0.39 -0.19,0.77 -0.33,1.15l-0.65 1.75z"/>
  <path id="1" class="fil0" d="M44.52 46.69l0.1 0.65c-0.21,0.04 -0.39,0.06 -0.55,0.06 -0.27,0 -0.47,-0.04 -0.62,-0.13 -0.15,-0.08 -0.25,-0.19 -0.31,-0.33 -0.06,-0.13 -0.09,-0.42 -0.09,-0.86l0 -2.49 -0.54 0 0 -0.56 0.54 0 0 -1.07 0.73 -0.44 0 1.51 0.74 0 0 0.56 -0.74 0 0 2.53c0,0.21 0.02,0.34 0.04,0.4 0.03,0.06 0.07,0.11 0.13,0.15 0.06,0.03 0.14,0.05 0.25,0.05 0.08,0 0.19,-0.01 0.32,-0.03z"/>
  <path id="2" class="fil0" d="M48.06 47.34l0 -0.64c-0.34,0.49 -0.79,0.73 -1.37,0.73 -0.25,0 -0.49,-0.04 -0.71,-0.14 -0.22,-0.1 -0.38,-0.22 -0.49,-0.37 -0.1,-0.15 -0.18,-0.33 -0.22,-0.54 -0.03,-0.14 -0.05,-0.37 -0.05,-0.68l0 -2.67 0.74 0 0 2.38c0,0.39 0.01,0.64 0.04,0.78 0.05,0.19 0.14,0.34 0.29,0.45 0.15,0.11 0.33,0.16 0.55,0.16 0.22,0 0.43,-0.05 0.62,-0.17 0.19,-0.11 0.33,-0.26 0.41,-0.45 0.07,-0.2 0.11,-0.48 0.11,-0.85l0 -2.3 0.74 0 0 4.31 -0.66 0z"/>
  <path id="3" class="fil0" d="M51.89 46.05l0.72 -0.11c0.04,0.29 0.16,0.51 0.34,0.66 0.19,0.16 0.45,0.24 0.78,0.24 0.34,0 0.59,-0.07 0.75,-0.21 0.16,-0.13 0.24,-0.3 0.24,-0.48 0,-0.17 -0.07,-0.3 -0.21,-0.39 -0.11,-0.07 -0.36,-0.15 -0.75,-0.25 -0.54,-0.13 -0.91,-0.25 -1.12,-0.35 -0.2,-0.1 -0.36,-0.23 -0.47,-0.41 -0.1,-0.17 -0.16,-0.36 -0.16,-0.58 0,-0.19 0.05,-0.37 0.13,-0.53 0.09,-0.16 0.21,-0.3 0.36,-0.41 0.12,-0.08 0.27,-0.15 0.47,-0.21 0.19,-0.06 0.4,-0.09 0.63,-0.09 0.34,0 0.63,0.05 0.89,0.15 0.26,0.1 0.44,0.23 0.57,0.4 0.12,0.17 0.2,0.39 0.25,0.67l-0.72 0.1c-0.03,-0.23 -0.12,-0.4 -0.28,-0.53 -0.16,-0.12 -0.37,-0.19 -0.66,-0.19 -0.33,0 -0.57,0.06 -0.72,0.17 -0.14,0.11 -0.21,0.24 -0.21,0.39 0,0.09 0.03,0.18 0.09,0.26 0.06,0.07 0.15,0.14 0.28,0.19 0.07,0.03 0.29,0.09 0.64,0.19 0.52,0.13 0.88,0.25 1.08,0.33 0.21,0.09 0.37,0.22 0.49,0.39 0.11,0.17 0.17,0.37 0.17,0.62 0,0.25 -0.07,0.47 -0.21,0.69 -0.14,0.21 -0.35,0.38 -0.62,0.5 -0.26,0.12 -0.57,0.17 -0.91,0.17 -0.56,0 -0.99,-0.11 -1.28,-0.34 -0.29,-0.24 -0.48,-0.58 -0.56,-1.04z"/>
  <path id="4" class="fil0" d="M59.28 45.95l0.76 0.1c-0.12,0.43 -0.34,0.78 -0.66,1.02 -0.32,0.24 -0.73,0.36 -1.23,0.36 -0.63,0 -1.13,-0.19 -1.5,-0.58 -0.37,-0.38 -0.55,-0.93 -0.55,-1.63 0,-0.72 0.18,-1.29 0.56,-1.69 0.37,-0.4 0.85,-0.6 1.45,-0.6 0.57,0 1.04,0.2 1.41,0.59 0.36,0.39 0.55,0.95 0.55,1.66 0,0.04 -0.01,0.11 -0.01,0.19l-3.21 0c0.02,0.47 0.16,0.84 0.4,1.09 0.24,0.25 0.54,0.38 0.9,0.38 0.27,0 0.49,-0.08 0.68,-0.22 0.19,-0.14 0.34,-0.36 0.45,-0.67zm-2.39 -1.18l2.4 0c-0.03,-0.36 -0.12,-0.63 -0.27,-0.81 -0.24,-0.29 -0.54,-0.43 -0.91,-0.43 -0.33,0 -0.62,0.12 -0.84,0.34 -0.23,0.22 -0.36,0.53 -0.38,0.9z"/>
  <path id="5" class="fil0" d="M60.96 47.34l0 -4.31 0.65 0 0 0.66c0.17,-0.31 0.33,-0.51 0.47,-0.61 0.14,-0.1 0.3,-0.15 0.47,-0.15 0.25,0 0.5,0.08 0.75,0.24l-0.26 0.67c-0.17,-0.1 -0.35,-0.15 -0.53,-0.15 -0.16,0 -0.3,0.05 -0.43,0.15 -0.12,0.09 -0.21,0.22 -0.27,0.39 -0.08,0.26 -0.12,0.55 -0.12,0.86l0 2.25 -0.73 0z"/>
  <path id="6" class="fil0" d="M64.92 47.34l-1.63 -4.31 0.78 0 0.92 2.58c0.1,0.28 0.2,0.57 0.28,0.87 0.07,-0.23 0.16,-0.5 0.28,-0.82l0.95 -2.63 0.76 0 -1.64 4.31 -0.7 0z"/>
  <path id="7" class="fil0" d="M67.9 42.22l0 -0.83 0.73 0 0 0.83 -0.73 0zm0 5.12l0 -4.31 0.73 0 0 4.31 -0.73 0z"/>
  <path id="8" class="fil0" d="M72.57 45.76l0.71 0.1c-0.08,0.49 -0.28,0.88 -0.6,1.16 -0.32,0.28 -0.72,0.41 -1.19,0.41 -0.59,0 -1.07,-0.19 -1.42,-0.57 -0.36,-0.39 -0.54,-0.94 -0.54,-1.66 0,-0.46 0.08,-0.87 0.23,-1.22 0.15,-0.35 0.39,-0.61 0.7,-0.78 0.32,-0.18 0.66,-0.27 1.03,-0.27 0.47,0 0.85,0.12 1.15,0.36 0.3,0.24 0.49,0.57 0.57,1.01l-0.7 0.11c-0.07,-0.29 -0.19,-0.51 -0.36,-0.66 -0.17,-0.14 -0.38,-0.22 -0.63,-0.22 -0.37,0 -0.67,0.13 -0.9,0.4 -0.23,0.26 -0.34,0.68 -0.34,1.25 0,0.58 0.11,1 0.33,1.26 0.22,0.26 0.51,0.4 0.87,0.4 0.29,0 0.53,-0.09 0.72,-0.27 0.19,-0.17 0.31,-0.44 0.37,-0.81z"/>
  <path id="9" class="fil0" d="M73.91 42.22l0 -0.83 0.73 0 0 0.83 -0.73 0zm0 5.12l0 -4.31 0.73 0 0 4.31 -0.73 0z"/>
  <path id="10" class="fil0" d="M75.48 45.18c0,-0.79 0.22,-1.38 0.67,-1.77 0.37,-0.32 0.82,-0.48 1.35,-0.48 0.6,0 1.08,0.2 1.46,0.59 0.37,0.38 0.56,0.92 0.56,1.6 0,0.56 -0.08,0.99 -0.25,1.31 -0.16,0.32 -0.41,0.56 -0.73,0.74 -0.31,0.18 -0.66,0.26 -1.04,0.26 -0.6,0 -1.09,-0.19 -1.46,-0.57 -0.38,-0.39 -0.56,-0.95 -0.56,-1.68zm0.75 0.01c0,0.55 0.12,0.96 0.36,1.23 0.24,0.28 0.55,0.42 0.91,0.42 0.37,0 0.67,-0.14 0.91,-0.42 0.24,-0.27 0.36,-0.69 0.36,-1.26 0,-0.53 -0.12,-0.93 -0.36,-1.21 -0.24,-0.27 -0.55,-0.41 -0.91,-0.41 -0.36,0 -0.67,0.14 -0.91,0.41 -0.24,0.27 -0.36,0.69 -0.36,1.24z"/>
  <path id="11" class="fil0" d="M85.51 45.76l0.72 0.1c-0.08,0.49 -0.28,0.88 -0.6,1.16 -0.33,0.28 -0.72,0.41 -1.19,0.41 -0.59,0 -1.07,-0.19 -1.43,-0.57 -0.36,-0.39 -0.53,-0.94 -0.53,-1.66 0,-0.46 0.07,-0.87 0.23,-1.22 0.15,-0.35 0.39,-0.61 0.7,-0.78 0.32,-0.18 0.66,-0.27 1.03,-0.27 0.47,0 0.85,0.12 1.15,0.36 0.3,0.24 0.49,0.57 0.57,1.01l-0.7 0.11c-0.07,-0.29 -0.19,-0.51 -0.37,-0.66 -0.17,-0.14 -0.38,-0.22 -0.62,-0.22 -0.37,0 -0.67,0.13 -0.9,0.4 -0.23,0.26 -0.34,0.68 -0.34,1.25 0,0.58 0.11,1 0.33,1.26 0.22,0.26 0.51,0.4 0.87,0.4 0.29,0 0.53,-0.09 0.72,-0.27 0.19,-0.17 0.31,-0.44 0.36,-0.81z"/>
  <path id="12" class="fil0" d="M86.58 45.18c0,-0.79 0.22,-1.38 0.66,-1.77 0.38,-0.32 0.83,-0.48 1.36,-0.48 0.59,0 1.08,0.2 1.46,0.59 0.37,0.38 0.56,0.92 0.56,1.6 0,0.56 -0.08,0.99 -0.25,1.31 -0.16,0.32 -0.41,0.56 -0.73,0.74 -0.31,0.18 -0.66,0.26 -1.04,0.26 -0.6,0 -1.09,-0.19 -1.46,-0.57 -0.38,-0.39 -0.56,-0.95 -0.56,-1.68zm0.75 0.01c0,0.55 0.12,0.96 0.36,1.23 0.24,0.28 0.54,0.42 0.91,0.42 0.37,0 0.67,-0.14 0.91,-0.42 0.24,-0.27 0.36,-0.69 0.36,-1.26 0,-0.53 -0.12,-0.93 -0.36,-1.21 -0.24,-0.27 -0.55,-0.41 -0.91,-0.41 -0.37,0 -0.67,0.14 -0.91,0.41 -0.24,0.27 -0.36,0.69 -0.36,1.24z"/>
  <path id="13" class="fil0" d="M91.48 47.34l0 -4.31 0.66 0 0 0.61c0.31,-0.47 0.77,-0.71 1.37,-0.71 0.26,0 0.5,0.05 0.71,0.14 0.22,0.1 0.39,0.22 0.49,0.37 0.11,0.15 0.19,0.33 0.23,0.54 0.03,0.14 0.04,0.37 0.04,0.71l0 2.65 -0.73 0 0 -2.62c0,-0.3 -0.03,-0.52 -0.08,-0.67 -0.06,-0.15 -0.16,-0.26 -0.31,-0.35 -0.14,-0.09 -0.31,-0.13 -0.51,-0.13 -0.31,0 -0.57,0.09 -0.8,0.29 -0.23,0.2 -0.34,0.58 -0.34,1.13l0 2.35 -0.73 0z"/>
  <path id="14" class="fil0" d="M100.01 46.69l0.1 0.65c-0.21,0.04 -0.39,0.06 -0.55,0.06 -0.27,0 -0.47,-0.04 -0.62,-0.13 -0.15,-0.08 -0.25,-0.19 -0.31,-0.33 -0.06,-0.13 -0.09,-0.42 -0.09,-0.86l0 -2.49 -0.54 0 0 -0.56 0.54 0 0 -1.07 0.74 -0.44 0 1.51 0.73 0 0 0.56 -0.73 0 0 2.53c0,0.21 0.01,0.34 0.03,0.4 0.03,0.06 0.07,0.11 0.13,0.15 0.06,0.03 0.14,0.05 0.25,0.05 0.08,0 0.19,-0.01 0.32,-0.03z"/>
  <path id="15" class="fil0" d="M100.72 47.34l0 -4.31 0.66 0 0 0.66c0.17,-0.31 0.32,-0.51 0.47,-0.61 0.14,-0.1 0.29,-0.15 0.47,-0.15 0.24,0 0.49,0.08 0.75,0.24l-0.26 0.67c-0.18,-0.1 -0.36,-0.15 -0.53,-0.15 -0.16,0 -0.31,0.05 -0.43,0.15 -0.13,0.09 -0.22,0.22 -0.27,0.39 -0.09,0.26 -0.13,0.55 -0.13,0.86l0 2.25 -0.73 0z"/>
  <path id="16" class="fil0" d="M106.32 46.8c-0.27,0.23 -0.53,0.4 -0.78,0.49 -0.25,0.1 -0.52,0.14 -0.81,0.14 -0.48,0 -0.84,-0.11 -1.1,-0.34 -0.25,-0.23 -0.38,-0.53 -0.38,-0.89 0,-0.21 0.05,-0.4 0.15,-0.58 0.09,-0.17 0.22,-0.31 0.37,-0.41 0.16,-0.11 0.34,-0.19 0.53,-0.24 0.14,-0.04 0.36,-0.08 0.65,-0.11 0.59,-0.07 1.03,-0.16 1.31,-0.25 0,-0.1 0,-0.17 0,-0.19 0,-0.3 -0.07,-0.51 -0.21,-0.63 -0.18,-0.17 -0.46,-0.25 -0.83,-0.25 -0.35,0 -0.6,0.06 -0.76,0.18 -0.17,0.12 -0.29,0.34 -0.37,0.64l-0.71 -0.09c0.06,-0.31 0.17,-0.56 0.32,-0.75 0.15,-0.19 0.36,-0.33 0.65,-0.43 0.28,-0.1 0.61,-0.16 0.98,-0.16 0.37,0 0.67,0.05 0.9,0.13 0.23,0.09 0.4,0.2 0.51,0.33 0.11,0.13 0.18,0.3 0.23,0.5 0.02,0.12 0.03,0.35 0.03,0.67l0 0.97c0,0.68 0.02,1.11 0.05,1.29 0.03,0.18 0.09,0.36 0.18,0.52l-0.77 0c-0.07,-0.15 -0.12,-0.33 -0.14,-0.54zm-0.06 -1.62c-0.26,0.11 -0.66,0.2 -1.2,0.27 -0.3,0.05 -0.51,0.1 -0.64,0.15 -0.12,0.05 -0.22,0.13 -0.28,0.24 -0.07,0.1 -0.11,0.21 -0.11,0.34 0,0.2 0.08,0.36 0.23,0.49 0.14,0.13 0.36,0.19 0.64,0.19 0.29,0 0.54,-0.06 0.76,-0.18 0.22,-0.13 0.38,-0.29 0.48,-0.51 0.08,-0.16 0.12,-0.4 0.12,-0.72l0 -0.27z"/>
  <path id="17" class="fil0" d="M108.13 47.34l0 -4.31 0.66 0 0 0.61c0.31,-0.47 0.77,-0.71 1.37,-0.71 0.26,0 0.5,0.05 0.71,0.14 0.22,0.1 0.39,0.22 0.49,0.37 0.11,0.15 0.19,0.33 0.23,0.54 0.03,0.14 0.04,0.37 0.04,0.71l0 2.65 -0.73 0 0 -2.62c0,-0.3 -0.03,-0.52 -0.09,-0.67 -0.05,-0.15 -0.15,-0.26 -0.3,-0.35 -0.14,-0.09 -0.31,-0.13 -0.51,-0.13 -0.31,0 -0.57,0.09 -0.8,0.29 -0.23,0.2 -0.34,0.58 -0.34,1.13l0 2.35 -0.73 0z"/>
  <path id="18" class="fil0" d="M112.46 46.05l0.73 -0.11c0.04,0.29 0.15,0.51 0.34,0.66 0.18,0.16 0.45,0.24 0.78,0.24 0.33,0 0.58,-0.07 0.75,-0.21 0.16,-0.13 0.24,-0.3 0.24,-0.48 0,-0.17 -0.07,-0.3 -0.22,-0.39 -0.1,-0.07 -0.35,-0.15 -0.75,-0.25 -0.53,-0.13 -0.9,-0.25 -1.11,-0.35 -0.21,-0.1 -0.36,-0.23 -0.47,-0.41 -0.11,-0.17 -0.16,-0.36 -0.16,-0.58 0,-0.19 0.04,-0.37 0.13,-0.53 0.09,-0.16 0.21,-0.3 0.36,-0.41 0.11,-0.08 0.27,-0.15 0.47,-0.21 0.19,-0.06 0.4,-0.09 0.63,-0.09 0.33,0 0.63,0.05 0.89,0.15 0.25,0.1 0.44,0.23 0.56,0.4 0.12,0.17 0.21,0.39 0.25,0.67l-0.71 0.1c-0.03,-0.23 -0.13,-0.4 -0.28,-0.53 -0.16,-0.12 -0.38,-0.19 -0.66,-0.19 -0.34,0 -0.57,0.06 -0.72,0.17 -0.14,0.11 -0.21,0.24 -0.21,0.39 0,0.09 0.03,0.18 0.09,0.26 0.05,0.07 0.15,0.14 0.28,0.19 0.07,0.03 0.28,0.09 0.64,0.19 0.52,0.13 0.88,0.25 1.08,0.33 0.21,0.09 0.37,0.22 0.48,0.39 0.12,0.17 0.18,0.37 0.18,0.62 0,0.25 -0.07,0.47 -0.21,0.69 -0.15,0.21 -0.35,0.38 -0.62,0.5 -0.27,0.12 -0.57,0.17 -0.91,0.17 -0.56,0 -0.99,-0.11 -1.28,-0.34 -0.3,-0.24 -0.48,-0.58 -0.57,-1.04z"/>
  <path id="19" class="fil0" d="M116.92 49l0 -5.97 0.66 0 0 0.56c0.16,-0.22 0.34,-0.38 0.53,-0.49 0.2,-0.11 0.44,-0.17 0.72,-0.17 0.37,0 0.7,0.1 0.98,0.29 0.28,0.19 0.49,0.45 0.64,0.8 0.14,0.34 0.21,0.72 0.21,1.13 0,0.44 -0.08,0.84 -0.24,1.19 -0.16,0.35 -0.39,0.62 -0.69,0.81 -0.3,0.19 -0.62,0.28 -0.95,0.28 -0.24,0 -0.46,-0.05 -0.65,-0.15 -0.2,-0.1 -0.36,-0.23 -0.48,-0.39l0 2.11 -0.73 0zm0.66 -3.79c0,0.55 0.11,0.96 0.34,1.23 0.22,0.26 0.49,0.4 0.81,0.4 0.33,0 0.6,-0.14 0.83,-0.42 0.24,-0.27 0.35,-0.69 0.35,-1.27 0,-0.55 -0.11,-0.96 -0.34,-1.23 -0.22,-0.28 -0.49,-0.41 -0.81,-0.41 -0.31,0 -0.58,0.14 -0.82,0.43 -0.24,0.29 -0.36,0.72 -0.36,1.27z"/>
  <path id="20" class="fil0" d="M124.36 46.8c-0.27,0.23 -0.53,0.4 -0.78,0.49 -0.25,0.1 -0.52,0.14 -0.81,0.14 -0.47,0 -0.84,-0.11 -1.09,-0.34 -0.26,-0.23 -0.39,-0.53 -0.39,-0.89 0,-0.21 0.05,-0.4 0.15,-0.58 0.1,-0.17 0.22,-0.31 0.38,-0.41 0.15,-0.11 0.33,-0.19 0.52,-0.24 0.15,-0.04 0.37,-0.08 0.66,-0.11 0.59,-0.07 1.02,-0.16 1.3,-0.25 0,-0.1 0.01,-0.17 0.01,-0.19 0,-0.3 -0.07,-0.51 -0.21,-0.63 -0.19,-0.17 -0.47,-0.25 -0.84,-0.25 -0.34,0 -0.6,0.06 -0.76,0.18 -0.17,0.12 -0.29,0.34 -0.37,0.64l-0.71 -0.09c0.06,-0.31 0.17,-0.56 0.32,-0.75 0.15,-0.19 0.37,-0.33 0.65,-0.43 0.28,-0.1 0.61,-0.16 0.98,-0.16 0.37,0 0.67,0.05 0.9,0.13 0.23,0.09 0.4,0.2 0.51,0.33 0.11,0.13 0.19,0.3 0.23,0.5 0.02,0.12 0.04,0.35 0.04,0.67l0 0.97c0,0.68 0.01,1.11 0.04,1.29 0.03,0.18 0.09,0.36 0.18,0.52l-0.76 0c-0.08,-0.15 -0.13,-0.33 -0.15,-0.54zm-0.05 -1.62c-0.27,0.11 -0.67,0.2 -1.2,0.27 -0.3,0.05 -0.52,0.1 -0.64,0.15 -0.13,0.05 -0.22,0.13 -0.29,0.24 -0.07,0.1 -0.1,0.21 -0.1,0.34 0,0.2 0.07,0.36 0.22,0.49 0.15,0.13 0.36,0.19 0.65,0.19 0.28,0 0.53,-0.06 0.75,-0.18 0.22,-0.13 0.38,-0.29 0.48,-0.51 0.08,-0.16 0.12,-0.4 0.12,-0.72l0.01 -0.27z"/>
  <path id="21" class="fil0" d="M126.16 47.34l0 -4.31 0.66 0 0 0.66c0.17,-0.31 0.32,-0.51 0.47,-0.61 0.14,-0.1 0.3,-0.15 0.47,-0.15 0.24,0 0.49,0.08 0.75,0.24l-0.26 0.67c-0.18,-0.1 -0.36,-0.15 -0.53,-0.15 -0.16,0 -0.31,0.05 -0.43,0.15 -0.13,0.09 -0.22,0.22 -0.27,0.39 -0.08,0.26 -0.12,0.55 -0.12,0.86l0 2.25 -0.74 0z"/>
  <path id="22" class="fil0" d="M131.89 45.95l0.75 0.1c-0.11,0.43 -0.33,0.78 -0.66,1.02 -0.32,0.24 -0.73,0.36 -1.23,0.36 -0.63,0 -1.13,-0.19 -1.5,-0.58 -0.36,-0.38 -0.55,-0.93 -0.55,-1.63 0,-0.72 0.19,-1.29 0.56,-1.69 0.37,-0.4 0.86,-0.6 1.45,-0.6 0.58,0 1.05,0.2 1.41,0.59 0.37,0.39 0.55,0.95 0.55,1.66 0,0.04 0,0.11 -0.01,0.19l-3.21 0c0.03,0.47 0.16,0.84 0.4,1.09 0.24,0.25 0.54,0.38 0.9,0.38 0.27,0 0.5,-0.08 0.69,-0.22 0.19,-0.14 0.34,-0.36 0.45,-0.67zm-2.4 -1.18l2.41 0c-0.04,-0.36 -0.13,-0.63 -0.28,-0.81 -0.23,-0.29 -0.53,-0.43 -0.91,-0.43 -0.33,0 -0.61,0.12 -0.84,0.34 -0.23,0.22 -0.35,0.53 -0.38,0.9z"/>
  <path id="23" class="fil0" d="M133.57 47.34l0 -4.31 0.66 0 0 0.61c0.31,-0.47 0.77,-0.71 1.37,-0.71 0.26,0 0.5,0.05 0.71,0.14 0.22,0.1 0.39,0.22 0.49,0.37 0.11,0.15 0.19,0.33 0.23,0.54 0.03,0.14 0.04,0.37 0.04,0.71l0 2.65 -0.73 0 0 -2.62c0,-0.3 -0.03,-0.52 -0.08,-0.67 -0.06,-0.15 -0.16,-0.26 -0.31,-0.35 -0.14,-0.09 -0.31,-0.13 -0.51,-0.13 -0.31,0 -0.57,0.09 -0.8,0.29 -0.23,0.2 -0.34,0.58 -0.34,1.13l0 2.35 -0.73 0z"/>
  <path id="24" class="fil0" d="M141.02 45.76l0.71 0.1c-0.08,0.49 -0.28,0.88 -0.6,1.16 -0.32,0.28 -0.72,0.41 -1.19,0.41 -0.59,0 -1.06,-0.19 -1.42,-0.57 -0.36,-0.39 -0.54,-0.94 -0.54,-1.66 0,-0.46 0.08,-0.87 0.23,-1.22 0.16,-0.35 0.39,-0.61 0.71,-0.78 0.31,-0.18 0.65,-0.27 1.03,-0.27 0.46,0 0.85,0.12 1.14,0.36 0.3,0.24 0.49,0.57 0.58,1.01l-0.71 0.11c-0.07,-0.29 -0.19,-0.51 -0.36,-0.66 -0.17,-0.14 -0.38,-0.22 -0.63,-0.22 -0.36,0 -0.66,0.13 -0.9,0.4 -0.23,0.26 -0.34,0.68 -0.34,1.25 0,0.58 0.11,1 0.33,1.26 0.23,0.26 0.52,0.4 0.87,0.4 0.29,0 0.53,-0.09 0.72,-0.27 0.19,-0.17 0.32,-0.44 0.37,-0.81z"/>
  <path id="25" class="fil0" d="M142.36 42.22l0 -0.83 0.73 0 0 0.83 -0.73 0zm0 5.12l0 -4.31 0.73 0 0 4.31 -0.73 0z"/>
  <path id="26" class="fil0" d="M147.03 46.8c-0.28,0.23 -0.54,0.4 -0.79,0.49 -0.25,0.1 -0.52,0.14 -0.81,0.14 -0.47,0 -0.84,-0.11 -1.09,-0.34 -0.26,-0.23 -0.38,-0.53 -0.38,-0.89 0,-0.21 0.04,-0.4 0.14,-0.58 0.1,-0.17 0.22,-0.31 0.38,-0.41 0.16,-0.11 0.33,-0.19 0.53,-0.24 0.14,-0.04 0.36,-0.08 0.65,-0.11 0.59,-0.07 1.02,-0.16 1.3,-0.25 0.01,-0.1 0.01,-0.17 0.01,-0.19 0,-0.3 -0.07,-0.51 -0.21,-0.63 -0.19,-0.17 -0.47,-0.25 -0.83,-0.25 -0.35,0 -0.61,0.06 -0.77,0.18 -0.16,0.12 -0.28,0.34 -0.36,0.64l-0.72 -0.09c0.07,-0.31 0.17,-0.56 0.32,-0.75 0.15,-0.19 0.37,-0.33 0.65,-0.43 0.28,-0.1 0.61,-0.16 0.98,-0.16 0.37,0 0.67,0.05 0.9,0.13 0.23,0.09 0.41,0.2 0.51,0.33 0.11,0.13 0.19,0.3 0.23,0.5 0.03,0.12 0.04,0.35 0.04,0.67l0 0.97c0,0.68 0.01,1.11 0.04,1.29 0.03,0.18 0.09,0.36 0.18,0.52l-0.76 0c-0.08,-0.15 -0.12,-0.33 -0.14,-0.54zm-0.06 -1.62c-0.27,0.11 -0.67,0.2 -1.2,0.27 -0.3,0.05 -0.52,0.1 -0.64,0.15 -0.13,0.05 -0.22,0.13 -0.29,0.24 -0.07,0.1 -0.1,0.21 -0.1,0.34 0,0.2 0.07,0.36 0.22,0.49 0.15,0.13 0.36,0.19 0.65,0.19 0.28,0 0.53,-0.06 0.75,-0.18 0.22,-0.13 0.38,-0.29 0.49,-0.51 0.07,-0.16 0.11,-0.4 0.11,-0.72l0.01 -0.27z"/>
  <path class="fil0" d="M10.65 30.51c0,1.09 -0.4,1.94 -1.2,2.56 -0.8,0.62 -1.81,0.93 -3.05,0.93 -0.98,0 -1.93,-0.27 -2.85,-0.81 -0.45,-0.28 -0.82,-0.67 -1.11,-1.18 -0.29,-0.51 -0.44,-1.1 -0.44,-1.76l2.04 -0.09c0,0.58 0.25,1.03 0.74,1.35 0.5,0.33 1.05,0.49 1.65,0.49 1.35,0 2.02,-0.48 2.02,-1.42 0,-0.78 -0.46,-1.24 -1.37,-1.38l-1.88 -0.19c-0.94,-0.14 -1.68,-0.47 -2.23,-1 -0.55,-0.53 -0.82,-1.29 -0.82,-2.28 0,-0.99 0.39,-1.81 1.18,-2.46 0.78,-0.64 1.78,-0.96 2.98,-0.96 1.2,0 2.17,0.3 2.9,0.91 0.73,0.61 1.1,1.39 1.1,2.35l-2.01 0.1c-0.18,-0.94 -0.81,-1.41 -1.89,-1.41 -0.65,0 -1.17,0.14 -1.54,0.42 -0.37,0.28 -0.56,0.61 -0.56,0.99 0,0.39 0.14,0.69 0.41,0.91 0.27,0.22 0.6,0.36 1,0.41l1.84 0.19c2.06,0.28 3.09,1.39 3.09,3.33z"/>
  <path id="1" class="fil0" d="M21.16 33.9l-2.34 0 -0.65 -1.98 -3.86 0 -0.63 1.98 -2.34 0 3.68 -10.53c0.17,-0.36 0.35,-0.62 0.55,-0.76 0.2,-0.14 0.44,-0.21 0.73,-0.21 0.29,0 0.53,0.07 0.7,0.2 0.18,0.13 0.34,0.38 0.48,0.77l3.68 10.53zm-3.5 -3.87l-1.36 -4.56 -1.42 4.56 2.78 0z"/>
  <path id="2" class="fil0" d="M29.84 33.9l-3.43 0c-1.29,0 -2.22,-0.25 -2.8,-0.75 -0.57,-0.5 -0.86,-1.31 -0.86,-2.44l0 -8.31 2.24 0 0 8.31c0,0.45 0.1,0.76 0.31,0.93 0.2,0.18 0.58,0.26 1.11,0.26l3.43 0 0 2z"/>
  <path id="3" class="fil0" d="M40.08 22.4l0 7.56c0,1.25 -0.42,2.24 -1.27,2.96 -0.84,0.72 -1.88,1.08 -3.12,1.08 -1.24,0 -2.28,-0.36 -3.13,-1.08 -0.84,-0.72 -1.27,-1.71 -1.27,-2.96l0 -7.56 2.25 0 0 7.48c0,0.71 0.2,1.24 0.59,1.59 0.39,0.35 0.91,0.53 1.56,0.53 0.64,0 1.17,-0.18 1.56,-0.53 0.4,-0.35 0.6,-0.88 0.6,-1.59l0 -7.48 2.23 0z"/>
  <path id="4" class="fil0" d="M51.1 28.11l0.02 1.24c-0.05,0.78 -0.14,1.45 -0.29,1.99 -0.16,0.53 -0.45,1.02 -0.89,1.47 -0.74,0.73 -1.8,1.09 -3.2,1.09 -1.65,0 -2.78,-0.21 -3.39,-0.65 -0.62,-0.44 -0.93,-1.22 -0.93,-2.37l0 -8.48 4.48 0c1.29,0 2.3,0.37 3.04,1.1 0.59,0.59 0.94,1.31 1.05,2.17 0.07,0.6 0.11,1.41 0.11,2.44zm-2.73 3.08c0.2,-0.25 0.34,-0.59 0.4,-1.02 0.05,-0.44 0.08,-1.12 0.08,-2.05 0,-0.93 -0.03,-1.6 -0.08,-2.01 -0.06,-0.42 -0.2,-0.75 -0.4,-0.99 -0.39,-0.48 -0.95,-0.71 -1.68,-0.71l-2.02 0 0 6.36c0,0.43 0.15,0.73 0.44,0.89 0.29,0.16 0.81,0.24 1.56,0.24 0.74,0 1.31,-0.24 1.7,-0.71z"/>
  <path id="5" class="fil0" d="M62.63 29.45l2.09 0c0,1.46 -0.37,2.59 -1.1,3.37 -0.73,0.79 -1.77,1.18 -3.1,1.18 -2.94,0 -4.41,-1.73 -4.41,-5.18l0 -0.97c0,-2.73 0.75,-4.44 2.26,-5.12 0.59,-0.28 1.31,-0.42 2.15,-0.42 1.23,0 2.22,0.33 2.99,1 0.78,0.68 1.16,1.65 1.16,2.92l-2.1 0c-0.12,-0.63 -0.33,-1.11 -0.63,-1.44 -0.3,-0.32 -0.78,-0.48 -1.42,-0.48 -0.76,0 -1.32,0.24 -1.68,0.71 -0.26,0.33 -0.41,0.9 -0.45,1.71 -0.03,0.26 -0.04,0.61 -0.04,1.05l0 1c0,1.24 0.18,2.09 0.52,2.54 0.36,0.45 0.91,0.68 1.66,0.68 0.74,0 1.26,-0.21 1.55,-0.62 0.28,-0.42 0.47,-1.06 0.55,-1.93z"/>
  <path id="6" class="fil0" d="M75.35 33.9l-2.34 0 -0.65 -1.98 -3.86 0 -0.63 1.98 -2.34 0 3.68 -10.53c0.16,-0.36 0.34,-0.62 0.54,-0.76 0.2,-0.14 0.45,-0.21 0.74,-0.21 0.29,0 0.52,0.07 0.7,0.2 0.18,0.13 0.34,0.38 0.48,0.77l3.68 10.53zm-3.51 -3.87l-1.35 -4.56 -1.43 4.56 2.78 0z"/>
  <path id="7" class="fil0" d="M82.81 22.4l0 7.4c0,1.54 -0.31,2.63 -0.95,3.26 -0.64,0.63 -1.56,0.94 -2.76,0.94 -0.78,0 -1.43,-0.1 -1.95,-0.31 -0.52,-0.2 -1,-0.52 -1.44,-0.96l1.26 -1.38c0.18,0.19 0.45,0.34 0.83,0.46 0.37,0.13 0.79,0.19 1.27,0.19 0.48,0 0.85,-0.12 1.11,-0.35 0.26,-0.23 0.39,-0.66 0.39,-1.3l0 -7.95 2.24 0z"/>
  <path id="8" class="fil0" d="M93.91 33.9l-2.34 0 -0.65 -1.98 -3.86 0 -0.63 1.98 -2.34 0 3.68 -10.53c0.16,-0.36 0.34,-0.62 0.54,-0.76 0.2,-0.14 0.45,-0.21 0.74,-0.21 0.29,0 0.52,0.07 0.7,0.2 0.18,0.13 0.34,0.38 0.48,0.77l3.68 10.53zm-3.5 -3.87l-1.36 -4.56 -1.42 4.56 2.78 0z"/>
  <path id="9" class="fil0" d="M103.99 27.04l-2.07 4.36c-0.3,0.58 -0.67,0.87 -1.12,0.87 -0.45,0 -0.82,-0.3 -1.12,-0.92l-2.1 -4.31 0 6.86 -2.25 0 0 -11.5 2.22 0 3.24 6.64 3.23 -6.64 2.22 0 0 11.5 -2.25 0 0 -6.86z"/>
  <path id="10" class="fil0" d="M117.32 33.9l-2.34 0 -0.65 -1.98 -3.86 0 -0.63 1.98 -2.34 0 3.68 -10.53c0.16,-0.36 0.34,-0.62 0.54,-0.76 0.2,-0.14 0.45,-0.21 0.74,-0.21 0.29,0 0.52,0.07 0.7,0.2 0.18,0.13 0.34,0.38 0.48,0.77l3.68 10.53zm-3.51 -3.87l-1.35 -4.56 -1.42 4.56 2.77 0z"/>
  <path id="11" class="fil0" d="M127.61 33.9l-2.6 0 -2.25 -4.26 -1.61 0 0 4.26 -2.25 0 0 -9.03c0,-0.86 0.2,-1.49 0.6,-1.88 0.4,-0.39 1.07,-0.59 2,-0.59l1.91 0c1.14,0 2.05,0.35 2.72,1.04 0.68,0.7 1.01,1.58 1.01,2.65 0,0.77 -0.2,1.44 -0.6,2.01 -0.41,0.56 -0.9,0.95 -1.5,1.17l2.57 4.63zm-4.34 -6.13c0.47,0 0.86,-0.17 1.17,-0.5 0.3,-0.33 0.46,-0.73 0.46,-1.22 0,-0.49 -0.15,-0.89 -0.45,-1.19 -0.29,-0.3 -0.69,-0.45 -1.18,-0.45l-1.12 0c-0.67,0 -1,0.34 -1,1.01l0 2.35 2.12 0z"/>
  <path id="12" class="fil0" d="M135.28 29.45l2.09 0c0,1.46 -0.37,2.59 -1.1,3.37 -0.73,0.79 -1.77,1.18 -3.1,1.18 -2.94,0 -4.41,-1.73 -4.41,-5.18l0 -0.97c0,-2.73 0.75,-4.44 2.26,-5.12 0.59,-0.28 1.31,-0.42 2.15,-0.42 1.23,0 2.23,0.33 3,1 0.77,0.68 1.15,1.65 1.15,2.92l-2.1 0c-0.12,-0.63 -0.33,-1.11 -0.63,-1.44 -0.3,-0.32 -0.77,-0.48 -1.42,-0.48 -0.76,0 -1.32,0.24 -1.68,0.71 -0.26,0.33 -0.41,0.9 -0.45,1.71 -0.03,0.26 -0.04,0.61 -0.04,1.05l0 1c0,1.24 0.18,2.09 0.52,2.54 0.36,0.45 0.91,0.68 1.66,0.68 0.75,0 1.26,-0.21 1.55,-0.62 0.28,-0.42 0.47,-1.06 0.55,-1.93z"/>
  <path id="13" class="fil0" d="M148 33.9l-2.34 0 -0.65 -1.98 -3.86 0 -0.63 1.98 -2.34 0 3.68 -10.53c0.16,-0.36 0.34,-0.62 0.54,-0.76 0.2,-0.14 0.45,-0.21 0.74,-0.21 0.29,0 0.52,0.07 0.7,0.2 0.18,0.13 0.34,0.38 0.48,0.77l3.68 10.53zm-3.51 -3.87l-1.35 -4.56 -1.42 4.56 2.77 0z"/>
 </g>
</svg>